<svg width="118" height="118" viewBox="0 0 118 118" fill="none" xmlns="http://www.w3.org/2000/svg">
<mask id="mask0" style="mask-type:alpha" maskUnits="userSpaceOnUse" x="0" y="0" width="118" height="118">
<path d="M0 46.046C0 29.7586 0 21.6148 3.21998 15.4161C5.93342 10.1925 10.1925 5.93342 15.4161 3.21998C21.6148 0 29.7586 0 46.046 0H71.954C88.2414 0 96.3851 0 102.584 3.21998C107.807 5.93342 112.067 10.1925 114.78 15.4161C118 21.6148 118 29.7586 118 46.046V71.954C118 88.2414 118 96.3851 114.78 102.584C112.067 107.807 107.807 112.067 102.584 114.78C96.3851 118 88.2414 118 71.954 118H46.046C29.7586 118 21.6148 118 15.4161 114.78C10.1925 112.067 5.93342 107.807 3.21998 102.584C0 96.3851 0 88.2414 0 71.954V46.046Z" fill="#C4C4C4"/>
</mask>
<g mask="url(#mask0)">
<rect width="118" height="118" fill="#7D2AE7"/>
<rect width="118" height="118" fill="url(#paint0_radial)"/>
<rect width="118" height="118" fill="url(#paint1_radial)"/>
<rect width="118" height="118" fill="url(#paint2_radial)"/>
<rect width="118" height="118" fill="url(#paint3_radial)"/>
<rect width="118" height="118" fill="url(#paint4_radial)"/>
<path d="M108.783 62.6136C108.615 62.6136 108.466 62.7255 108.391 62.9493C107.378 65.8337 106.01 67.5556 104.885 67.5556C104.238 67.5556 103.977 66.8345 103.977 65.7031C103.977 62.8809 105.674 56.8883 106.52 54.1531C106.62 53.8711 106.676 53.5755 106.688 53.2765C106.688 52.4808 106.252 52.0892 105.177 52.0892C104.101 52.0892 102.765 52.5492 101.559 54.6752C101.136 52.7979 99.8678 51.9773 98.0961 51.9773C96.0508 51.9773 94.0739 53.2952 92.4451 55.4274C90.8163 57.5596 88.9078 58.2683 87.4655 57.9202C88.5037 55.3901 88.8829 53.4941 88.8829 52.0892C88.8829 49.8824 87.795 48.5521 86.0356 48.5521C83.3562 48.5521 81.8145 51.107 81.8145 53.7925C81.8145 55.8688 82.7532 58.0072 84.8296 59.0454C83.0951 62.9679 80.5587 66.5175 79.5951 66.5175C78.3518 66.5175 77.985 60.4378 78.0596 56.0864C78.0969 53.5936 78.3083 53.463 78.3083 52.7046C78.3083 52.2757 78.0223 51.9773 76.8971 51.9773C74.2674 51.9773 73.4468 54.209 73.3287 56.7702C73.2833 57.7413 73.1312 58.7044 72.8749 59.6421C71.7683 63.5709 69.5054 66.5486 68.0258 66.5486C67.3358 66.5486 67.1555 65.8586 67.1555 64.9634C67.1555 62.1411 68.7345 58.604 68.7345 55.5953C68.7345 53.376 67.7647 51.9773 65.9308 51.9773C63.7798 51.9773 60.9263 54.5447 58.2283 59.3438C59.1173 55.6699 59.4778 52.1079 56.8544 52.1079C56.2835 52.1166 55.723 52.2616 55.2194 52.5306C54.8588 52.7171 54.6661 53.0528 54.691 53.4257C54.9396 57.3483 51.5329 67.3754 48.3002 67.3754C47.7096 67.3754 47.4298 66.7413 47.4298 65.7094C47.4298 62.8871 49.1146 56.9069 49.96 54.1655C50.0631 53.8672 50.1197 53.5548 50.1279 53.2392C50.1279 52.4933 49.6679 52.1079 48.6172 52.1079C47.4609 52.1079 46.2114 52.5492 44.9991 54.6752C44.5764 52.7979 43.3082 51.9773 41.5426 51.9773C38.6394 51.9773 35.3881 55.0482 33.9644 59.0578C32.0559 64.4039 28.2078 69.5635 23.0292 69.5635C18.3294 69.5635 15.8489 65.6534 15.8489 59.4805C15.8489 50.5538 22.4013 43.2681 27.2566 43.2681C29.5816 43.2681 30.6882 44.7476 30.6882 47.0166C30.6882 49.7643 29.1589 51.0386 29.1589 52.083C29.1589 52.4 29.42 52.7171 29.9484 52.7171C32.0621 52.7171 34.5426 50.2367 34.5426 46.855C34.5426 43.4733 31.801 40.9929 26.9395 40.9929C18.9138 40.9929 10.832 49.0743 10.832 59.4246C10.832 67.6613 14.8978 72.6282 21.9227 72.6282C26.7157 72.6282 30.9058 68.9046 33.1687 64.5469C33.4236 68.1586 35.0586 70.036 37.5515 70.036C39.7708 70.036 41.5675 68.7181 42.9414 66.3932C43.4698 68.8238 44.8685 70.0173 46.69 70.0173C48.7789 70.0173 50.5195 68.6932 52.1794 66.2378C52.1545 68.1648 52.5959 69.98 54.2682 69.98C55.0577 69.98 56.0027 69.7998 56.1705 69.1097C57.9237 61.8303 62.2816 55.8874 63.6119 55.8874C64.0036 55.8874 64.1093 56.2604 64.1093 56.7142C64.1093 58.691 62.7167 62.7441 62.7167 65.3302C62.7167 68.1338 63.9041 69.98 66.3597 69.98C69.0827 69.98 71.8491 66.648 73.6955 61.7744C74.2736 66.3248 75.5232 69.9987 77.469 69.9987C79.8687 69.9987 84.1271 64.9572 86.707 59.6111C87.7142 59.7416 89.2373 59.7105 90.692 58.6786C90.0765 60.2514 89.7097 61.9733 89.7097 63.689C89.7097 68.6497 92.0721 70.036 94.1112 70.036C96.3305 70.036 98.1272 68.7181 99.5011 66.3932C99.9549 68.4881 101.111 70.0111 103.244 70.0111C106.576 70.0111 109.473 66.6045 109.473 63.8071C109.473 63.0674 109.156 62.6136 108.783 62.6136ZM39.5906 67.2945C38.2415 67.2945 37.7131 65.9332 37.7131 63.9128C37.7131 60.4068 40.1128 54.5385 42.6554 54.5385C43.762 54.5385 44.1847 55.8501 44.1847 57.4478C44.1847 61.0098 41.9032 67.2945 39.5906 67.2945ZM85.7062 56.8137C84.9042 55.8564 84.612 54.5509 84.612 53.3947C84.612 51.9649 85.1342 50.7589 85.7621 50.7589C86.39 50.7589 86.5765 51.3743 86.5765 52.2322C86.5765 53.662 86.0667 55.7631 85.7062 56.8137ZM96.144 67.2945C94.8012 67.2945 94.2728 65.7342 94.2728 63.9128C94.2728 60.5249 96.6724 54.5385 99.2337 54.5385C100.34 54.5385 100.738 55.8315 100.738 57.4478C100.738 61.0098 98.4939 67.2945 96.144 67.2945Z" fill="white"/>
</g>
<defs>
<radialGradient id="paint0_radial" cx="0" cy="0" r="1" gradientUnits="userSpaceOnUse" gradientTransform="translate(22.7926 104.585) rotate(-49.4156) scale(91.2629)">
<stop stop-color="#6420FF"/>
<stop offset="1" stop-color="#6420FF" stop-opacity="0"/>
</radialGradient>
<radialGradient id="paint1_radial" cx="0" cy="0" r="1" gradientUnits="userSpaceOnUse" gradientTransform="translate(31.2389 13.4147) rotate(54.7035) scale(102.916)">
<stop stop-color="#00C4CC"/>
<stop offset="1" stop-color="#00C4CC" stop-opacity="0"/>
</radialGradient>
<radialGradient id="paint2_radial" cx="0" cy="0" r="1" gradientUnits="userSpaceOnUse" gradientTransform="translate(22.7926 104.585) rotate(-45.1954) scale(90.1581 41.465)">
<stop stop-color="#6420FF"/>
<stop offset="1" stop-color="#6420FF" stop-opacity="0"/>
</radialGradient>
<radialGradient id="paint3_radial" cx="0" cy="0" r="1" gradientUnits="userSpaceOnUse" gradientTransform="translate(48.2558 15.8989) rotate(66.5198) scale(92.9008 155.629)">
<stop stop-color="#00C4CC" stop-opacity="0.725916"/>
<stop offset="0.0001" stop-color="#00C4CC"/>
<stop offset="1" stop-color="#00C4CC" stop-opacity="0"/>
</radialGradient>
<radialGradient id="paint4_radial" cx="0" cy="0" r="1" gradientUnits="userSpaceOnUse" gradientTransform="translate(4.3789 3.34181) rotate(48.8515) scale(99.471 166.636)">
<stop stop-color="#00C4CC" stop-opacity="0.725916"/>
<stop offset="0.0001" stop-color="#00C4CC"/>
<stop offset="1" stop-color="#00C4CC" stop-opacity="0"/>
</radialGradient>
</defs>
</svg>
