<svg width="24" height="24" viewBox="0 0 338.66666 289.14169" xmlns="http://www.w3.org/2000/svg">
  <g transform="translate(-325.73924,-51.329101)">
    <path
      fill="#E8A0C8"
      d="m 392.11112,127.08279 -32.90691,3.71485 -19.63516,19.10725 -0.52435,128.44089 -1.06743,38.74428 29.18962,14.33001 266.96697,-1.58992 17.51527,-14.86092 2.11052,-23.88391 1.59179,-144.89379 -13.79986,-13.26857 -19.63515,-1.06182 h -18.57896 -29.1915 l -91.818,1.06182 -34.4987,-1.06182 z"
    />
    <path
      fill="#ffffff"
      fill-rule="evenodd"
      d="m 495.18961,69.346251 c -33.30018,-3.7e-4 -60.49539,27.13865 -60.49539,60.392009 0,33.25355 27.19521,60.36505 60.49539,60.36486 33.29643,-7.5e-4 60.45606,-27.11225 60.45606,-60.36486 0,-33.252419 -27.15963,-60.391069 -60.45606,-60.392009 z"
    />
    <path
      fill="#6c007c"
      fill-rule="evenodd"
      d="m 495.19335,51.329101 c -39.55496,-1.9e-4 -72.48996,29.5076 -77.80466,67.599989 h -52.95967 c -9.48518,0 -18.20255,3.47665 -24.94986,9.21832 a 10.808492,10.808492 0 0 0 -1.68542,1.38392 v 0 a 10.808492,10.808492 0 0 0 -0.5618,0.6105 c -7.08252,7.01191 -11.4927,16.71975 -11.4927,27.39633 v 144.32449 c 0,11.73147 5.32593,22.30168 13.67438,29.40198 a 10.808492,10.808492 0 0 0 1.10489,0.90264 c 6.58063,5.19503 14.86354,8.30351 23.83372,8.30351 h 261.48374 c 8.83348,0 16.99841,-3.01672 23.52848,-8.06905 a 10.808492,10.808492 0 0 0 1.7416,-1.41762 10.808492,10.808492 0 0 0 0,-0.0375 c 8.13684,-7.09581 13.29984,-17.52613 13.29984,-29.08512 V 157.53704 c 0,-10.84288 -4.54127,-20.68948 -11.82229,-27.72481 a 10.808492,10.808492 0 0 0 -0.2809,-0.2809 10.808492,10.808492 0 0 0 -0.89889,-0.80713 c -6.8297,-6.07931 -15.80925,-9.79286 -25.60155,-9.79286 H 572.84071 C 567.53725,80.839891 534.64157,51.332281 495.08474,51.331351 Z m 0,21.638 c 31.57543,9.3e-4 56.91668,25.30828 56.91668,56.775279 0,31.46719 -25.34125,56.73877 -56.91668,56.73971 -31.57543,1.8e-4 -56.91667,-25.27177 -56.91667,-56.73971 0,-31.467929 25.34124,-56.775469 56.91667,-56.775279 z M 364.13313,140.52028 c 0,-0.002 0.22472,0 0.29963,0 h 52.95968 c 5.29035,38.10756 38.23284,67.60018 77.80466,67.59999 39.57369,-9.3e-4 72.47124,-29.49356 77.7541,-67.59999 h 52.96342 c 0,0 0,-5.7e-4 0.22472,0 L 512.86031,253.23769 c -9.93275,9.88406 -25.48731,9.88612 -35.42006,0 z m 278.55143,13.97963 v 0.009 c 0.22472,0.98129 0.24345,1.98805 0.24345,3.0259 v 144.3243 c 0,1.73036 -0.24345,3.38245 -0.69289,4.93753 l -76.30277,-75.93852 z m -294.99365,0.0936 76.70352,76.34921 -76.24658,75.86811 c -0.44945,-1.55433 -0.71163,-3.20736 -0.71163,-4.93735 V 157.54902 c 0,-1.00938 0,-1.99947 0.22473,-2.95548 z m 202.90598,91.54852 73.04054,72.71338 H 366.74928 l 72.97124,-72.65476 22.44794,22.34175 c 18.15573,18.06585 47.75735,18.06791 65.91121,0 z"
    />
    <path
      fill="#430f4b"
      fill-rule="evenodd"
      d="m 526.43544,129.72646 a 31.259052,31.190491 0 0 1 -31.26081,31.1906 31.259052,31.190491 0 0 1 -31.26082,-31.1906 31.259052,31.190491 0 0 1 31.26082,-31.190399 31.259052,31.190491 0 0 1 31.26081,31.190399 z"
    />
    <path
      fill="#ffffff"
      fill-rule="evenodd"
      d="m 526.43544,111.77579 a 13.268863,13.239761 0 0 1 -13.26801,13.23992 13.268863,13.239761 0 0 1 -13.26988,-13.23992 13.268863,13.239761 0 0 1 13.26988,-13.239729 13.268863,13.239761 0 0 1 13.26801,13.239729 z"
    />
  </g>
</svg>
