<?xml version="1.0" encoding="UTF-8" standalone="no"?><!DOCTYPE svg PUBLIC "-//W3C//DTD SVG 1.1//EN" "http://www.w3.org/Graphics/SVG/1.1/DTD/svg11.dtd"><svg width="100%" height="100%" viewBox="0 0 2395 945" version="1.1" xmlns="http://www.w3.org/2000/svg" xmlns:xlink="http://www.w3.org/1999/xlink" xml:space="preserve" xmlns:serif="http://www.serif.com/" style="fill-rule:evenodd;clip-rule:evenodd;stroke-linejoin:round;stroke-miterlimit:2;"><g><clipPath id="_clip1"><rect x="0" y="0" width="2394.444" height="944.444"/></clipPath><g clip-path="url(#_clip1)"><rect x="712.828" y="606.389" width="566.333" height="62.222" style="fill-rule:nonzero;"/><path d="M1851.661,731.944c0.7,-52.639 -41.778,-95.833 -94.906,-96.667c-53.128,-0.694 -96.722,41.389 -97.567,94.028l0,2.639c-1.261,52.639 40.794,96.389 93.922,97.639c53.128,1.25 97.144,-40.417 98.55,-93.056l0,-4.583Zm38.689,0c1.261,73.611 -57.894,134.306 -132.189,135.556c-74.3,1.25 -135.556,-57.361 -136.822,-130.972c-1.261,-73.611 57.9,-134.306 132.194,-135.556l2.522,0c72.333,-1.806 132.333,54.722 134.156,126.389l0,4.583" style="fill-rule:nonzero;"/><path d="M2095.994,606.111l0,37.222c-4.622,-0.556 -13.317,-0.556 -17.939,-0.556c-67.428,0 -101.772,50.417 -101.772,118.194l0,96.806l-39.672,0l0,-251.25l39.672,0l0,61.667c18.922,-38.75 58.317,-63.611 101.772,-64.167c6.028,-0.278 12.194,0.417 18.083,2.083" style="fill-rule:nonzero;"/><path d="M2356.178,732.5c3.222,-50.833 -35.744,-94.444 -87.056,-97.639c-2.522,-0.139 -5.044,-0.278 -7.706,-0.139c-54.394,2.083 -96.728,47.5 -94.622,101.389c1.961,50.972 43.172,91.806 94.622,93.75c51.306,1.111 93.639,-39.167 94.761,-90l0,-7.361Zm38.128,0c3.228,69.722 -51.167,128.75 -121.539,131.944l-5.044,0c-39.111,1.25 -76.539,-15.972 -100.789,-46.389l0,126.389l-39.111,0l0,-337.778l39.111,0l0,40.278c24.25,-30.417 61.678,-47.639 100.789,-46.389c70.372,0.417 127.144,57.222 126.722,126.944l0,5" style="fill-rule:nonzero;"/><path d="M1552.517,781.111c-14.722,30.139 -46.122,48.611 -79.906,47.083c-50.744,1.25 -92.939,-38.611 -94.2,-88.889l0,-6.944c-2.244,-50.833 37.428,-93.889 88.733,-96.25l5.328,0c33.361,-1.25 64.061,17.5 78.222,47.361l41.911,0c-16.961,-50.972 -65.883,-84.861 -120.133,-83.056c-73.594,0.833 -132.472,60.694 -131.633,133.611c0.844,71.667 59.3,129.583 131.633,130.417c54.389,2.639 103.733,-31.528 119.856,-83.056l-0.983,-0.278l-39.111,0l0.283,0Z" style="fill-rule:nonzero;"/><path d="M315.969,356.111c0,-69.583 -45.839,-113.333 -106.818,-113.333c-62.942,3.333 -111.304,56.528 -108.08,119.028c3.084,57.778 49.624,104.028 108.08,107.083c60.979,0 106.818,-43.056 106.818,-112.639m97.567,-0.278c0,118.75 -89.997,199.583 -186.862,199.583c-45.559,1.389 -90.137,-13.056 -126.023,-40.833l0,29.444l-100.651,0l0,-544.167l100.651,0l0,197.361c35.606,-28.333 80.324,-43.056 126.023,-41.528c96.866,0 186.862,81.667 186.862,200.278" style="fill-rule:nonzero;"/><path d="M703.433,164.723l-5.328,95.972l-22.15,0c-93.078,0 -135.836,56.667 -135.836,161.806l0,121.667l-100.651,0l0,-377.083l100.651,0l0,68.75c29.58,-46.389 81.163,-74.444 136.536,-74.028c8.972,-0.556 18.083,0.556 26.633,3.056" style="fill-rule:nonzero;"/><path d="M1015.056,356.111c2.1,-60.556 -45.7,-111.25 -106.817,-113.333l-1.544,0c-60.978,0 -106.817,43.889 -106.817,113.333c0,69.444 45.7,112.639 106.817,112.639c60.7,-0.833 109.2,-50.278 108.361,-110.417l0,-2.222Zm100.65,188.194l-100.789,0l0,-29.444c-35.889,27.778 -80.467,42.222 -126.028,40.833c-96.861,0 -186.861,-80.833 -186.861,-199.583c0,-118.75 90,-200.278 186.861,-200.278c45.7,-1.528 90.278,13.194 126.028,41.528l0,-30.278l100.789,0l0,377.222Z" style="fill-rule:nonzero;"/><path d="M1289.811,62.5c-1.122,33.333 -29.439,59.583 -63.222,58.333c-32.1,-1.111 -57.756,-26.667 -58.878,-58.333c0,-33.333 27.339,-60.417 60.983,-60.417c33.644,-0 60.978,27.083 60.978,60.417" style="fill-rule:nonzero;"/><rect x="1178.367" y="167.083" width="100.656" height="377.222" style="fill-rule:nonzero;"/><path d="M1714.983,314.444l0,229.722l-100.65,0l0,-208.611c0,-52.917 -30.561,-88.472 -77.1,-88.472c-57.194,0 -94.622,37.778 -94.622,130l0,167.083l-100.65,0l0,-377.083l100.65,0l0,34.028c31.961,-30.833 75.278,-47.222 119.717,-45.417c91.539,0 152.517,65 152.517,158.75" style="fill-rule:nonzero;"/><path d="M2052.678,63.888c-97.422,11.944 -185.317,64.028 -242.233,143.194c-39.25,55.694 -50.883,125.833 -31.822,190.972c25.378,82.361 98.272,141.667 184.761,150.139c9.111,1.111 18.222,1.667 27.478,1.667c60.7,1.111 118.172,-26.528 154.761,-74.444c18.361,0 36.444,-0.833 52.844,-1.528l4.35,-0.278c76.539,-3.611 172,-43.889 188.683,-145.694c10.794,-61.528 -9.256,-124.306 -53.972,-168.333c-66.728,-63.056 -155.6,-98.194 -247.839,-97.778c-12.339,-0 -24.811,0.694 -37.011,2.083Zm-104.011,452.361c-72.056,-17.361 -125.467,-77.639 -133.317,-150.833c-5.606,-53.333 11.494,-106.528 47.106,-146.944c53.128,-59.583 127.844,-96.111 207.889,-101.806c7.711,-0.556 15.417,-0.833 22.989,-0.833c67.567,0.556 133.033,23.611 186.022,65.278c44.294,35.972 66.444,92.361 58.456,148.611c-7.289,44.861 -46.4,78.472 -97.428,91.528c-21.867,5 -44.3,7.778 -66.728,7.917c11.778,-28.889 9.256,-61.667 -6.867,-88.472c-21.311,-35.417 -62.244,-54.444 -103.456,-48.056c-34.061,4.306 -63.222,26.389 -76.4,57.917c-10.372,25.972 -5.328,55.556 13.317,76.528c30.422,36.111 80.467,46.111 129.528,47.778c-34.906,31.389 -80.322,48.611 -127.561,48.194c-18.083,0 -36.167,-2.361 -53.694,-7.083m110.889,-94.583c-16.967,-5.139 -31.122,-16.667 -39.672,-31.944c-4.767,-10 -5.05,-21.389 -0.983,-31.667c12.194,-25.556 38.833,-41.25 67.289,-39.444c3.506,0 7.006,0.278 10.511,0.694c26.078,2.639 48.922,18.333 60.7,41.528c10.372,21.667 11.917,46.389 4.483,69.028l-7.706,0.278c-9.533,0.278 -19.067,0.556 -28.739,0.556c-22.289,0.694 -44.578,-2.361 -65.744,-8.889" style="fill-rule:nonzero;"/><path d="M2372.294,86.251c-1.4,0.833 -2.944,1.25 -4.628,1.111l-5.044,0l0,-9.167l5.328,0c1.678,0 3.361,0.278 4.767,1.111c0.978,0.972 1.539,2.361 1.4,3.75c0,1.25 -0.7,2.639 -1.822,3.194Zm7.567,15.972c0,-0.833 -0.139,-2.222 -0.139,-4.306c0,-1.806 -0.278,-3.472 -0.978,-5.139c-0.706,-1.389 -1.822,-2.5 -3.228,-3.194c2.522,-1.111 4.206,-3.611 4.206,-6.528c0,-2.778 -1.122,-5.556 -3.222,-7.222c-2.667,-1.806 -5.75,-2.778 -8.972,-2.5l-10.656,0l0,31.667l5.611,0l0,-12.5l5.883,0c2.528,-0.556 4.911,1.111 5.328,3.611l0,1.806c-0.139,2.5 0,4.861 0.561,7.222l5.75,0l0,-0.556" style="fill-rule:nonzero;"/><path d="M2367.667,61.667c-15.139,-0.278 -27.611,11.528 -27.894,26.528c-0.278,15 11.633,27.361 26.633,27.639c15.139,0.278 27.617,-11.528 27.9,-26.528l0,-0.556c0.139,-14.722 -11.778,-26.944 -26.778,-27.083m0.139,4.722c12.478,-0.278 22.85,9.444 23.133,21.667c0.417,12.361 -9.394,22.639 -21.872,22.917c-12.472,0.417 -22.844,-9.306 -23.128,-21.667l0,-0.694c-0.139,-12.222 9.672,-22.222 21.867,-22.361" style="fill-rule:nonzero;"/></g></g></svg>